<svg xmlns="http://www.w3.org/2000/svg" xml:space="preserve" viewBox="0 0 29252.3 16557.2" preserveAspectRatio="xMidYMid meet" class="svg-map">
  <g id="Слой_x0020_1">
    <metadata id="CorelCorpID_0Corel-Layer"></metadata>
    <g id="_2138189327872">
      <path class="fil13 str0" d="M23314.64 8317.31c-50.46,203.93 -42.88,255.3 -60.92,485.01l-341.4 -41.73c-23,133.97 -73.97,276.2 -88.95,411.2 -15.58,140.44 -77.61,757.42 -23.22,852.26 87.17,152 62.13,-70.73 71,403.87l-478.77 38.82 -0.01 197.95c21.56,14.56 2.54,6.55 51.42,28.34 5.61,2.5 12.13,5.32 18.08,7.68 79.75,31.74 149.11,26.92 252.66,91.47 98.71,61.53 185.17,107.47 247.05,189.14 -132.6,70.63 -381.21,239.71 -493.87,325.21 -176.7,182.9 -400.15,191.58 -701.13,213.8 -346.82,25.61 -492.9,67.44 -802.69,-31.21 -6.65,-2.12 -13.16,-4.7 -19.59,-7.64 -31.02,114.92 -88.75,245.27 -113.41,356.16 -23.76,106.87 58.47,214.38 72.65,341.9l-231.04 97.09c37.22,305.26 15.42,180.83 130.04,331.06 101.68,133.26 46.08,130.26 249.73,164.91 533.71,90.81 970.19,176.46 1521.43,147.49 309.37,-16.25 328.28,-35.92 459.16,-374.43 354.66,-9.36 698.13,30.92 1028.09,-52.16 317.67,-79.98 166.15,-48.28 448.42,-34.68 168.66,8.11 340.84,-42.58 513.07,-24.29l-38.46 404.86c107.88,49.34 141.66,43.53 174.38,167.77 75.25,285.68 60.36,607.3 110.51,898.14 84.93,21.15 275.37,-93.52 379.9,-118.94 243.59,-59.22 757.81,180.6 870.25,185.41 683.42,29.21 402.7,-36.47 613.94,271.88l189.25 -17.96c64.29,92.9 128.24,173.42 169.49,262.75l1379.46 46.12 -6.78 -135.14c-532.82,4.42 -564.34,94.09 -845.53,-260.19 -42.33,-53.33 -40.66,-194.24 30.51,-229.64 70.48,-4.91 336.39,106.86 415.62,153.72 217.39,128.54 11.48,187.89 404.39,190l2.31 -556.36 186.49 -6.57 6.4 -329.34c63.08,-42.1 91.59,-40.94 183.5,-54.32l-127.31 -445.55c-477.46,160.32 -584.79,175.31 -811.08,617.63 -122.2,0.06 -396.78,-29.02 -488.16,2.97 -50.16,-248.07 -7.72,-259.28 -138.08,-439.39l135 -100.01c48.66,-41.22 55.52,-56.89 96.39,-102.47l-190.21 -255.57c-75.07,67.65 -368.02,383.39 -390.33,137.73 217.88,-113.17 140.25,84.68 249.35,-259.26 30.56,-96.38 169.02,-168.23 245.06,-268.78 101.49,-134.17 50.05,-172.9 225,-290.66 121.85,-82.02 61.19,-29.67 130.5,-138.9 55.09,-86.87 12.4,-36.29 136.82,-86.7 -34.39,-61.26 -101.9,-163.45 -195.91,-158.4 -187.92,10.11 -57.9,33.33 -213.21,-88.56 -100.98,87.5 -269.78,190.95 -381.5,268.45 -147.29,102.15 -232.47,201.93 -415.55,159.58 -206.06,-47.67 -50.4,-706.36 -15.8,-867.28l491.78 153.42c52.51,-200.31 23.05,-185.05 -81.87,-316.83 -174.39,-219.04 -294.9,-435.6 -531.3,-596.98l-43.95 -30.82c-3.95,-2.96 -9.81,-7.6 -13.55,-10.52l-58.34 -48.49c12.84,-128.2 43.17,-130.15 45.33,-285.53 -69.02,-39.77 -28.9,-3.67 -70.97,-19.73 -123.97,-47.31 -28.02,-51.52 -156.56,-114.07 -178.06,-86.64 -443.18,20.55 -176.44,-454.49l-31.25 -24.02c-3.52,-3.54 -10.18,-8.72 -13.64,-12.84 -37.84,-44.96 -3.85,38.63 -26.69,-45.13 -60.01,-220.08 239.16,-30.16 316.72,-324.41 61.29,-232.53 69.35,-190.46 -19.14,-353.48l364.26 -115.94c-58.49,-203.27 4.67,-227.28 100.55,-375.48 260.03,24.34 556.42,76.44 817.6,115.1 67.97,-106.68 254.72,-786.65 271.2,-963.47l-242.75 -0.82 -23.99 -105.56 -169.91 -5.7c53.06,69.79 60.25,79.42 3.98,180.69 -32.94,59.3 -69.39,117.91 -96.43,169.74 -231.3,-81.74 -35.65,-81.04 -366.1,-39.83 -3.47,183.17 108.91,181.87 41.69,387.24 -162.45,-26.49 -205.98,-162.21 -369.72,-187.38l-37.53 97.04c-33.92,42.38 -0.49,20.25 -62.48,34.84 -381.8,89.87 -823.39,-145.84 -1206.65,-217.89l46.26 -198.19c-171.48,-120.16 -189.18,-49.29 -362.3,-122.56 -1.77,-108.56 43.08,-147.21 75.94,-248.35 -117.27,-28.92 -431.42,12.42 -585.8,24.35 -32.23,-64.49 -11.91,-159.94 -106.85,-151.33 -130.32,11.81 -101.23,35.06 -262.08,15.66 -146.45,-17.67 -283.66,-50.63 -415.46,-90.68 -44.6,48.21 -18.32,33.86 -38.6,106.13l-190.17 -0.12 -78.57 356.73c142.92,21.24 127.57,-28.06 258.43,-19.43 357.68,23.6 411.67,156.77 408.47,499.01l-589.67 -108.27c-95.23,173.12 -142.34,250.89 -164.89,379.78l-18.25 243.1c-222.22,23.42 -333.96,56.2 -388.71,114.21 -7.92,11.12 -16.47,23.4 -26.01,37.06z"></path>
      <path class="fil1 str0" d="M9782.93 1346.51l0.45 0.1 0.44 0.11 0.44 0.11 9.92 2.33 0.46 0.11 0.46 0.1 0.46 0.11 0.3 0.07 0.16 0.04 0.47 0.11 0.46 0.1 0.93 0.21 0.46 0.1 12.83 2.89 0.49 0.12 0.48 0.1 0.5 0.11 -66.21 23.48c-13.53,7.67 -29,13.33 -46.24,16.41l-16.56 5.88c40.43,109.55 100.04,214.86 137.69,329.25l756.16 -1.38c27.77,30.61 135.01,221.45 145.6,290.95 10.29,67.48 -61.74,258.7 -82.66,341.12 59.76,66.72 74.53,63.32 120.43,143.11 -32.32,58.55 -70.1,112.4 -97.27,179.12 -156.72,-9.5 -367.61,-88.91 -507.99,-45.61l-42.09 408.15c111.81,37.87 246.04,87.29 326.02,166.38 -314.32,3.55 -442,-106.08 -628.53,181.88 -55.1,85.07 -33.84,125.2 -34.8,247.46l-145.97 8.89c-14.09,562.65 -36.47,513.52 -273.37,711.49 -93.74,78.34 -167.89,143.29 -266.97,222.35 -325.49,259.73 -244.01,194.59 -246.4,571.44l4.62 1.11 0.42 0.1c60.11,15.04 127.28,49.02 197.95,54.71l0.32 0.02c9.66,0.77 19.4,1 29.18,0.59l0.38 -0.01c3.2,-0.14 6.39,-0.35 9.59,-0.64l0.46 -0.04c6.45,-0.58 12.93,-1.46 19.43,-2.69l0.42 -0.07c2.99,-0.56 6.01,-1.23 9.02,-1.94l1.56 -0.38c2.96,-0.73 5.94,-1.53 8.92,-2.41l1.11 -0.34c3.06,-0.91 6.13,-1.91 9.19,-3.01l0.99 -0.36c3.09,-1.12 6.18,-2.31 9.29,-3.6l0.22 -0.1c3.05,-1.27 6.09,-2.65 9.13,-4.11l1.57 -0.74c2.89,-1.4 5.78,-2.9 8.67,-4.47l1.8 -0.99c2.97,-1.66 5.97,-3.39 8.96,-5.22l1 -0.63c3.19,-1.98 6.37,-4.05 9.57,-6.25 116.87,-80.51 49.18,-67.13 223.55,-67.38 87.76,16.32 2.94,54.39 139.89,125.81 193.89,101.12 62.29,81.81 183.26,112.84 123.64,31.7 122.52,-11.74 204.51,85.86 85.4,101.66 25.34,66.67 155.08,135.91 -107.42,143.1 -124.41,21.85 -124.23,250.96 90.76,-19.74 230.9,-82.29 311.28,-60.51 127.52,34.56 106.77,144.87 264.45,63.25l10.03 -5.19 0.26 -0.14 9.6 -4.97 0.5 -0.27 9.16 -4.75 0.74 -0.39c174.22,-90.57 256.92,-136.97 299.63,-157.43 -14.41,-19.02 31.37,-91.95 29.85,-149.29 -14.43,-543.42 48.88,-312.41 166.55,-474.95 91.42,-126.27 -30.07,-98.3 292.33,-346.29 67.58,-51.98 98.03,-79.65 164.38,-130.27l540.72 -415.11c86.28,-68.34 80.84,-101.63 191.85,-116.13 68.63,123.02 45.94,97.48 49.99,272.36 205.55,96.43 52.76,13.88 171.11,177.47l140.15 -220.94c238.39,-25.75 350.94,13.17 413.98,-196.27 -30.88,-104.14 -69.92,-116.81 -118.01,-197.94 77.62,-97.26 147.02,-192.46 149.01,-365.61 3.59,-310.9 -109.54,-163.87 -148.66,-345.32 127.85,-86.02 151.68,-23.03 282.16,-81.03 128.21,-56.98 70.88,-124.6 130.21,-235.7 74.81,-35.69 230.67,25.46 328.6,40.68 155.65,24.2 227.09,-8.35 368.73,-17.95l35.44 -22.6c52.66,-35.23 108.1,-78.32 169.67,-117.3 18.04,-11.6 37.83,-23.37 60.41,-35.39l0.12 -0.07 4.8 -2.54 0.03 -0.02 4.92 -2.56 523.48 -285.68c162.95,-98.39 88.44,-97.42 197.31,-207.19 241.85,26.93 264.32,109.57 231.09,-217.68 -78.76,-58.72 -202.72,-108.31 -291.48,-149.37 -239.4,-110.75 -169.02,-5.93 -335.27,-35.81 -446.3,-80.21 -374.94,-175.53 -452.12,-233 -83.7,-62.33 -80.7,4.74 -162.56,-86.21 -30.4,-89.81 -11.66,-590.97 12.85,-700.61l4.52 2.66c2.16,-7.77 4.35,-14.89 5.76,-21.39 5.55,-25.65 15.05,-46.93 27.26,-64.12 -192.23,-141.6 -45.61,-210.11 -732.6,-211.73 -234.5,-0.56 -455.41,190.17 -627.69,-14.7 -45.01,-53.54 -19.82,-67.14 -95.33,-105.06l-207.23 -33.57c-126.25,0.57 -138,123.38 -205.86,183.21 -76.81,67.68 -214.42,44.35 -333.42,69.25 -126.05,-147.56 -9.91,-155.7 -241.85,-284.56 -96.8,-53.77 -277.45,-145.6 -401.18,-159.77 -251.22,-28.77 -78.86,-12.85 -201.82,-72.72 -221.03,-107.62 -250.23,67.28 -294.62,225.94 -28.89,103.24 -66.59,146.57 -12.6,235.36 121,126.61 164.73,-47.51 249.51,69.37 -22.18,58.5 54.97,38.27 -83.98,69.55 -204.25,45.98 -559.83,-379.63 -729.31,-328.72 -48.58,34.04 -127.37,135.84 -151.55,184 -40.86,81.39 -34.65,222.49 -47.01,328.28l-269.74 131.78 12.67 175.05c3.83,1.17 7.7,2.19 11.65,3.01 120.39,24.72 139.87,147.67 80.75,217.88z"></path>
      <path class="fil2 str0" d="M14702.21 5671.36c30.68,110.72 54.8,120.3 57.49,248.57l-240.38 48.52c33.52,257.28 143.76,635.91 140.04,896.86l-67.17 36.79c-26.16,11.43 -27.02,10.36 -54.44,19.58l-811.34 261.55 -73.94 -106.41 -271.04 84.02 66.32 259.96 -307.41 -34.46 -95.76 316.88 -319.54 0.46 37.44 -586.87 -285.2 -9.81 -34.58 -250.13 271.52 31.16c-6.26,-115.67 -2.13,-247.86 -117,-259.9 -213.17,-22.34 -144.99,37.13 -270.06,-106.29 -226.13,-259.31 -194.16,-311.31 -434.79,-313.94 20.69,114.86 58.63,149.57 25.23,253.18 -223.36,48.22 9.18,-95.88 -272.13,114.91 -116.01,86.92 -55.76,38.07 -182.91,27.81 -125.09,-10.09 -79.54,24.85 -139.81,95.93 -228.36,-7 -167.32,-17.45 -184.79,-218.25l-187.98 22 -1.96 -297.15c-39.12,137.93 -6.18,34.41 -43.24,81.72l-215.18 -160.49c-147.19,386.29 -90.32,394.83 -321.8,421.94 11.77,128.8 55.34,108.92 3.4,219.35 -46.51,98.87 -100.69,242.98 -114.85,368.02 -15.82,139.56 -23.31,101.21 -44.21,194.17 181.51,245.34 262.92,66.54 285.54,269.64 -25.37,18.51 5.24,10.49 -69.85,37.02 -346.74,122.49 -315.07,37.86 -396.16,5.41 -87.77,-35.13 -142.1,-16.42 -196.53,16.2 -121.88,73.06 -88.4,12.72 -295.97,20.2 1.79,137.42 -21.44,112.19 80.86,143.42 586.33,179.01 599.89,8.05 694.35,264.87l279.06 -0.05 -0.26 329.91c-339.93,-9.23 -433.59,31.09 -692.13,-102.29 -12.7,21.59 -3.48,10.18 -16.57,51.71 -1.73,5.46 -3.51,12.64 -5.38,18.39 -32.65,100.52 -46.46,145.41 -122.29,189.64 59.28,91.35 -5.07,78.68 84.34,110.78 34.3,12.32 147.33,14.15 198.78,21.05 98.63,13.23 291.51,22.65 358.69,70.32l2.2 156.02 -303.69 1.01c-39.05,64.78 -3.93,41.64 -49.89,109.53 -58.92,87.04 -125.38,147.21 -165.3,364.59 -19.56,108.89 -50.95,140.82 -55.42,249.55l336.98 -6.24c18.28,-217.77 -63.44,-57.32 -40.2,-433.08l243.48 38.67 49.91 -112.12 234.69 34.23 34.05 163.34 477.87 0.17 -36.94 -320.23 392.55 1.18 2.69 388.1 382.64 17.3 4.76 182.46c172.45,0.43 100.73,-9.07 142.61,53.81 70.34,105.64 -68.31,29.43 99.64,86.09l0.95 228.62 347.22 0.81c46.47,-121.47 57.62,-72.03 53.98,-258.47l-187.58 -63 12.37 -242.05 194.68 -1.27 25.97 -75.54c3.75,-20.48 1.98,-49.31 2.36,-70.63 38.91,-3.51 75.52,-2.65 107.76,-16.13l119.04 -77.82 1184.79 -69.49 -37.67 154.67 182.6 13.66 -42.74 535.04c232.65,-21.05 141.55,-9.64 419.07,15.28 169.72,15.25 160.8,72.32 388.65,80.06l47.16 324.95 -237.02 191.71c83.52,268.55 7.9,94.57 -37.45,269.72 137.41,15.99 273.98,17.18 422.73,28.39 43.99,3.32 149.96,21.84 196.7,13.95 100.76,-17.01 28.95,-6.22 66.18,-29.64 35.07,-22.09 1.27,-25.36 59.79,-43.16 33.06,21.53 376.83,363.88 408.4,451.32l49.26 201.13c1.02,-3.4 3.93,13.36 7.36,19.35 118.37,55.4 250.13,1.65 379.28,-44.24 31.87,-463.15 -53.14,-419 286.12,-472.49 253.55,-39.97 196.32,16.11 195.33,-472.22 186.56,-21.86 1294.05,-25.03 1537.21,31.99 97.17,22.79 64.11,40.66 183.36,42.68l39.57 -132.42 109.2 -486.67 -271.88 24.41c-19.21,-31.79 17.2,-138.74 32.2,-205.53 96.55,-429.76 76.32,-92.16 236.12,-373.63 55.85,-98.37 51.45,-95.65 153.75,-135.09 0.16,-112.33 19.27,-252.2 33.23,-371.24 22.39,-190.78 -39.31,-139.52 -106.92,-263.93 -71.77,-132.08 22.88,-530.42 24.03,-713.69l-2.7 -0.02 -2.84 -0.01 -2.96 -0.01 -1.12 -0.01 -1.98 -0.01 -3.22 -0.01 -3.34 -0.02 -2.54 -0.01 -0.94 -0.01 -3.6 -0.01 -3.72 -0.01 -3.84 -0.01 -0.4 0 -3.57 -0.01 -4.08 -0.02 -4.2 -0.01 -2 -0.01 -2.32 0 -4.43 -0.02 -4.54 -0.01 -3.89 -0.01 -0.77 -0.01 -4.78 -0.01 -4.88 -0.01 -4.98 -0.01 -1.01 0 -4.09 -0.01 -5.19 -0.01 -5.3 -0.02 -3.06 -0.01 -2.35 0 -5.52 -0.02 -5.6 -0.01 -5.33 -0.02 -0.38 0 -5.81 -0.02 -5.9 -0.01 -6 -0.01 -1.83 0 -4.26 -0.02 -6.19 -0.02 -6.27 -0.02 -4.24 -0.01 -2.13 0 -6.45 -0.03 -6.54 -0.01 -6.64 -0.02 -0.22 0 -6.48 -0.02 -6.8 -0.02 -6.88 -0.03 -2.78 -0.01 -4.17 -0.01 -7.05 -0.02 -7.11 -0.03 -5.51 -0.02 -1.68 -0.01 -7.27 -0.03 -7.34 -0.03 -7.41 -0.02 -1.01 0 -6.48 -0.03 -7.56 -0.03 -7.62 -0.04 -3.86 -0.01 -3.83 -0.02 -7.76 -0.03 -7.82 -0.04 -6.85 -0.04 -1.04 0 -7.95 -0.04 -8.01 -0.04 -8.07 -0.04 -1.91 -0.01 -6.21 -0.03 -8.19 -0.05 -8.24 -0.04 -4.99 -0.03 -3.3 -0.02 -8.35 -0.06 -8.4 -0.04 -8.2 -0.06 -0.25 0c-1.98,1.22 -1069.03,9.21 -1137.52,1.82l22.65 -1541.33c-163.32,-2.74 -338.06,6.74 -498.64,0.11 -30.15,-1.24 -51.3,-2.88 -66.76,-4.88l-0.03 0c-242.98,0.01 -584.37,19.19 -865.99,26.43 -71.48,6.19 -162.11,7.77 -281.9,1.52l-1.43 -505.46 -142.09 8.6 -22.89 -168.19 -134.56 5.33 0 0.01c-132.57,10.52 -409.81,2.55 -526.28,31.33l5.57 56.53z"></path>
      <path class="fil3 str0" d="M1694.7 11168.51l-546.18 -127.23c4.8,534.07 -50.27,470.4 188.12,563.74 303.98,119.01 312.8,72.49 333.32,504.89l-691.34 -115.76c-84.51,117.19 -46.25,80.44 -272.98,140.72 -106.71,28.37 -229.14,50.66 -319.01,99.68l83.71 359.07 866.8 80.55 -51.88 446.84c-6.69,3.24 -15.39,5.98 -21.01,7.41 -5.6,1.45 -14.28,5.09 -21.28,6.59 -149.29,31.98 121.43,-7.7 -44.47,8.11 -55.35,5.27 -384.56,-45.53 -571.55,-31.47l37.4 621.77c-69.21,2.35 -133.21,1.57 -202.09,1.38 -25.99,-0.07 -70.99,-0.77 -95.42,2.21l-58.3 14.57c-68.96,-123.76 -74.13,1520.41 -74.75,1635.16 81.02,-0.3 158.89,-52.1 225.28,-82.2 217.2,172.69 492.45,587.26 628.47,565.8 172.78,-27.28 260.22,-135.23 478.07,-137.92 198.74,-2.47 390.6,-55.88 565.08,7.21 60.61,105.12 57.83,367.75 82.89,402.17 84.09,115.53 748.9,12.08 882.4,51.62 119.63,35.44 200.34,101.44 343.7,122.02 212.2,30.46 164.39,-45.9 411.39,31.03 166.5,51.86 230.63,-56.02 362.43,-53.12 125.61,2.76 582.87,212.08 681.03,265.64l3.27 -1143.66 889.93 0.85c214.13,400.07 353.87,289.45 585.93,366.92l434.85 302.68c61.99,60.54 37.96,58.47 113.79,103.27 35.99,-84.79 121.91,-106.44 108.36,-231.82l106.17 -270.72 165.93 119.32c166.92,-136.61 118.23,-221.17 150.16,-304.62 37.04,-96.81 134.5,-100.38 166.74,-277.07 -251.14,-139.38 -125.92,95.41 -235.58,-328.92l-284.67 -11.61c-7.62,-228.08 -1.62,-203.9 -172.57,-235.3 -21.01,-4.02 -77.87,-186.78 -73.42,-280.48 -56.03,-165.23 -43.55,-152.34 -214.5,-199.34l-100.97 109.26c-257.22,4.66 -247.24,-18 -354.11,-189.55 -444.31,-13.51 -411.94,-21.24 -411.2,269.6 -227.04,12.51 -158.23,34.38 -247.68,167.1 -161.93,-2.39 -146.84,-118.76 -309.66,-70.48 -171.19,50.75 -149.62,90.15 -289.43,-40.6 -135.01,-126.27 -6.04,-185.76 -156.9,-285.42 -77.73,-51.34 -212.15,-81.77 -297.06,-138.62 120.6,-129.71 -48.28,-7.98 186.25,-107.97 7.89,-3.36 73.9,-37.65 82.37,-41.49 153.64,-69.65 128.03,-36.38 307.11,-26.92 58.23,-102.74 -90.34,-13.98 130.07,-172.75 -15.07,-186.31 -121.88,-258.1 -168.06,-366.58 61.67,3.03 210.4,34.53 258.45,23.12 110.72,-26.24 -5.88,-69.51 256.19,-66.26 -12.83,111.16 -52.4,141.11 -65.01,260.39l99.52 91.42c111.65,-16.49 113.09,-55.74 213.67,-63.89 -8.24,107.47 -39.82,76.25 -44.58,214.91l117.63 -19.62c19.9,-79.77 24.5,-113.17 45.45,-181.52 -25.4,-27.33 -11.77,-12.17 -45.72,-38.52 -100.4,-77.91 -77.53,-22.63 -77.78,-133.65l291.01 104.48c56.33,-78.97 113.32,-145.15 131.03,-262.86 -140.59,-42.75 -125.61,49.88 -197.78,-119.9 -51.69,-121.57 -4.76,-132.34 45.64,-233 -97.11,-95.16 -176.74,-35.63 -303.4,-78.44 -29.38,-69.02 -16.5,-168.69 -13.09,-256.5 73.85,-12.11 114.59,-15.13 174.98,-60.15 -12.48,-213.37 -12.1,-433.63 -167.7,-491.52 -183.75,-68.37 -111.69,55.22 -386.93,52.89l-92.77 -7.38c-163.74,-33.77 -5.82,-363.04 -249.9,-839.6 -76.65,-45.44 -135.71,-63.28 -255.06,-102.12l-521.03 4.45 -39.21 -229.34 -186.45 -37.54c-36.61,78.29 -36.21,137.17 -150.27,154.48 -164.37,-48.77 3.95,-92.74 -180.69,-115.73 -34.89,79.07 -32.18,117.83 -87.04,188.91 -99.37,-55.65 -182.09,-108.44 -369.58,-115.54 -4.2,-5.82 -7.69,-14.47 -9.83,-19.12l-43.3 -76.99c-58.8,36.77 -171.88,169.88 -267.42,118.29 -1.54,-0.84 -120.88,-199.87 -258.21,80.9 -99.99,-26.14 -52.55,-16.42 -132.9,-62.1 -91.65,-83.13 -392,-258.6 -549.68,-276.96l-0.65 540.14 -252.54 -51.69z"></path>
      <path class="fil4 str0" d="M7046.31 8311.67l-0.09 -0.03c1.35,2.03 2.74,4.04 4.15,6.03 51.8,44.35 121.7,103.61 216.44,200.48 166.61,170.23 38.14,254.06 5.32,631.82l-334.28 -75.64 -2.44 512.96c-580.84,226.56 -438.49,337.92 -466.06,392.88l-400.3 -2.55 -237.02 314.57c-361.57,21.04 -272.3,-137.6 -388.13,-197.85 -64.82,-31.57 -213.12,-48.83 -295.85,-71.44 -173.14,-47.33 -144.18,-16.05 -256.68,44.9 27.48,132.85 194.77,230.58 349.26,425.31 -82,101.22 -122.59,45.52 -128.21,236.47 -140.81,25.38 -109.81,15.77 -186.96,106.08 -25.55,29.92 -46.96,50.15 -69.84,78.3 -21.23,26.14 -91.58,124.49 -102.09,152.3l-10.03 0.09c119.35,38.84 178.41,56.68 255.06,102.12 244.08,476.56 86.16,805.83 249.9,839.6l92.77 7.38c275.24,2.33 203.18,-121.26 386.93,-52.89 155.6,57.89 155.22,278.15 167.7,491.52 -60.39,45.02 -101.13,48.04 -174.98,60.15 -3.41,87.81 -16.29,187.48 13.09,256.5 126.66,42.81 206.29,-16.72 303.4,78.44 -50.4,100.66 -97.33,111.43 -45.64,233 72.17,169.78 57.19,77.15 197.78,119.9 -17.71,117.71 -74.7,183.89 -131.03,262.86l-291.01 -104.48c0.25,111.02 -22.62,55.74 77.78,133.65 33.95,26.35 20.32,11.19 45.72,38.52 -20.95,68.35 -25.55,101.75 -45.45,181.52l-117.63 19.62c4.76,-138.66 36.34,-107.44 44.58,-214.91 -100.58,8.15 -102.02,47.4 -213.67,63.89l-99.52 -91.42c12.61,-119.28 52.18,-149.23 65.01,-260.39 -262.07,-3.25 -145.47,40.02 -256.19,66.26 -48.05,11.41 -196.78,-20.09 -258.45,-23.12 46.18,108.48 152.99,180.27 168.06,366.58 -220.41,158.77 -71.84,70.01 -130.07,172.75 -179.08,-9.46 -153.47,-42.73 -307.11,26.92 -8.47,3.84 -74.48,38.13 -82.37,41.49 -234.53,99.99 -65.65,-21.74 -186.25,107.97 84.91,56.85 219.33,87.28 297.06,138.62 150.86,99.66 21.89,159.15 156.9,285.42 139.81,130.75 118.24,91.35 289.43,40.6 162.82,-48.28 147.73,68.09 309.66,70.48 89.45,-132.72 20.64,-154.59 247.68,-167.1 -0.74,-290.84 -33.11,-283.11 411.2,-269.6 106.87,171.55 96.89,194.21 354.11,189.55l100.97 -109.26c170.95,47 158.47,34.11 214.5,199.34 -4.45,93.7 52.41,276.46 73.42,280.48 170.95,31.4 164.95,7.22 172.57,235.3l825.79 33.68 84.68 -336.95c68.2,-1.68 150.67,23.93 194.25,12.89 91.48,-23.18 -42.12,-21.42 124.91,-61.23 95.35,-22.73 255.98,-23.41 356.67,-38.72l41.1 -224.61c78.85,-14.12 203.6,-21.79 224.48,-223.9 6.58,-63.72 -0.47,19.13 -1.88,-39.26 -1.41,-58.32 -35.23,27.11 0.79,-30.06 39.57,-61.19 202.08,-177.98 264.51,-220.95l74.24 70.94c61.58,34.35 16.33,19.62 101.23,24.63 60.33,-110.8 23.76,-307.53 483.99,-316.27 2.21,-166.25 19.34,-142.61 -171.12,-319.84 5.34,-3.6 13.65,-6.38 17.55,-8.08l51.79 -21.96c35.82,-14.74 28.22,-6.5 47.66,-18.98 -45.23,-168.29 -142.56,-417.87 -137.44,-588.3 15.5,-10.4 358.39,-136.92 510.57,-295.93 61.67,-64.43 65.38,-67.53 65,-184.85 -133.92,-88.52 -189.44,-27.48 -228.71,-205.55l139.3 -49.03 -0.03 -343.43 -218.67 -41.48c-2.4,-5.15 -4.25,-12.92 -4.84,-16.35 -0.6,-3.46 -3.47,-12.32 -4,-16.71 -9.39,-77.24 19.66,-162.28 25.09,-239.7 -419.86,-7.69 -349.32,45.6 -485,-197.28 -108.02,-193.4 -136.93,-90.69 -156.69,-142.25 -3.2,-8.35 -13.37,-4.25 -19.34,-7.8l-26.51 -374.22c-8.55,-148.29 -117.31,-185.11 -99.16,-300.93 171.48,-77.73 272.02,118.96 346.23,-140.89 62.66,-219.37 -12.57,-70.7 111.62,-208.7l131.37 57.98c29.57,-171.88 -10.9,-226.8 92.59,-427.2 2.07,-3.99 8.6,-7.5 10.14,-16.93 1.55,-9.51 6.48,-11.6 10.37,-16.98 39.92,-217.38 106.38,-277.55 165.3,-364.59 45.96,-67.89 10.84,-44.75 49.89,-109.53l303.69 -1.01 -2.2 -156.02c-67.18,-47.67 -260.06,-57.09 -358.69,-70.32 -51.45,-6.9 -164.48,-8.73 -198.78,-21.05 -89.41,-32.1 -25.06,-19.43 -84.34,-110.78 -259.18,-182.9 -226.49,-149.41 -622.65,-142.4l41.72 231.67c-75.82,70.59 -32.51,48.3 -156.7,83.85l-41.42 -151.15c-286.85,3.02 -666.5,109.83 -932.54,-73.84 -60.86,-42.02 -55.44,-56.16 -96.07,-98.47 -114.19,-118.85 -130.31,-34.62 -282.89,-21.43 -47.15,2.87 -308.81,99.52 -585.58,-69.07 -12.21,-7.44 -23.63,-14.97 -34.37,-22.6z"></path>
      <path class="fil5 str0" d="M18352.08 7759.54c180.78,1.15 328.11,1.13 384.33,1.49 -1.15,183.27 -95.8,581.61 -24.03,713.69 67.61,124.41 129.31,73.15 106.92,263.93 -13.96,119.04 -33.07,258.91 -33.23,371.24 -102.3,39.44 -97.9,36.72 -153.75,135.09 -159.8,281.47 -139.57,-56.13 -236.12,373.63 -15,66.79 -51.41,173.74 -32.2,205.53l271.88 -24.41 -109.2 486.67c-12.49,225.75 -138.92,386.59 -144.39,571.05 740.2,-11.2 188.19,98.1 787.51,103.87 112.56,1.09 139.12,-62.9 205.29,-112.13 78.47,-58.4 297.19,-126.6 400.68,-187.38 122.86,-72.14 245.66,-164.41 447.66,-163.55 42.87,84.13 58.16,207.38 112.3,295.14 53.92,87.39 143.26,157.91 223.06,221.16 152.08,120.53 243.64,423.14 405.1,474.56 309.79,98.65 455.87,56.82 802.69,31.21 300.98,-22.22 524.43,-30.9 701.13,-213.8 112.66,-85.5 361.27,-254.58 493.87,-325.21 -61.88,-81.67 -148.34,-127.61 -247.05,-189.14 -103.55,-64.55 -172.91,-59.73 -252.66,-91.47 -5.95,-2.36 -12.47,-5.18 -18.08,-7.68 -48.88,-21.79 -29.86,-13.78 -51.42,-28.34l0.01 -197.95 478.77 -38.82c-8.87,-474.6 16.17,-251.87 -71,-403.87 -54.39,-94.84 7.64,-711.82 23.22,-852.26 14.98,-135 65.95,-277.23 88.95,-411.2l341.4 41.73c18.04,-229.71 10.46,-281.08 60.92,-485.01 41.26,-81.9 149.02,-123.27 414.72,-151.27l18.25 -243.11c-185.28,-34.43 -408.44,-144.9 -506.01,-246.36 131.07,-102.42 196.95,-273.62 218.14,-499.36l-126.86 -6.23 42.72 -131.67c-13.09,-6.03 -23.66,-16.43 -27.2,-10.44 -30.39,-11.47 -60.71,-22.86 -90.95,-34.71 -3.22,-1.25 -10.78,-3.2 -15.38,-6.29 84.71,-192.26 57.1,-40.85 203.13,-135.66 92.17,-59.85 -32.47,-72.37 254.87,-12.48l7.88 -121.39c-136.57,-67.54 -240.5,-16.95 -400.8,-97.88 -78.12,-39.44 -252.43,-124.37 -308.74,-171.86l83.52 -243.45c-62.63,-65.97 -55.14,-27.55 -131.26,-75.2 25.18,-161.72 136.87,-205.05 -260.84,-459.93 -123.84,-79.37 -518.76,-101.79 -706.61,-112.95 39.99,95.06 50.32,51.35 83.13,174.25 114.16,2.74 77.48,-11.62 160.42,34.45 41.82,23.23 -7.58,2.94 60.64,38.21 24.63,12.73 64.98,24.94 86.74,35.15 5,43.09 12.4,72.21 5.27,117.52l-124.65 295.85c110.14,89.87 67.1,97.83 167.49,152.66 77.74,42.46 176.56,44.16 292.79,48.2l-187.37 356.73 -289.54 -147.98 70.2 -111.45 -216.25 -87.35c27.95,-130.59 40.83,-89.29 -108,-137.06 -115.37,-37.03 -119.64,-42.69 -186.88,-126.29 -145.05,33.16 21.61,-3.92 -76.28,33.39 -55.7,21.23 -8.43,19.41 -102.87,23.77 -167.47,7.73 -397.74,-99.34 -563.98,-99.8 -197.76,292.05 -11.75,419.45 27.52,487.39 -80.88,203.93 -150.99,200.4 -246.48,216.24 -88.45,14.65 -149.22,43.07 -221.07,31.54 -135.53,-21.72 -29.22,-13.02 -99.97,-48.95 -42.08,-21.37 49.7,-25.32 -80.61,-14.69 -90.43,7.39 -192.07,51.76 -356.89,61.63l-5.52 -309c-672.49,-12.78 -213.13,-39.36 -463,-85.57 -42.16,-7.8 -194.93,0.66 -243.55,4.49 -50.53,228.93 -51.68,115.09 -177.84,238.85 -96.19,94.36 -151.5,118.77 -234.42,195.83 -200.86,-145.41 -211.64,-202.94 -180.89,-339.4 -68.05,-35.72 -59.52,-9.76 -110.93,-109.86 -2.25,-4.38 -4.7,-13.36 -8.55,-19.22l-156.62 -0.1 -33.49 63.84c-10.46,16.13 -23.02,31.51 -34.74,46.75 -75.16,114.29 -371.47,598.69 -346.68,739.11 14.53,82.28 50.35,239.92 82.93,305.05 32.74,34.05 47.23,-6.14 98.5,6.53 70.27,17.36 57.01,-12.31 90.3,131.76z"></path>
      <path class="fil6 str0" d="M14072.81 2923.59l29.01 129.89c-120.8,74.07 -110.79,22.94 -93.81,233.06 6.11,4.38 14.52,8.73 19.5,11.35 4.87,2.56 13.31,7.73 19.23,10.7 5.69,2.84 12.72,6.7 18.86,9.57l85.71 30.5c5.52,85.58 18.82,83.05 29.39,159.27l3.57 225.07c-0.74,3.87 -3.73,10.12 -4.8,14.37l-27.88 116.71 174.3 24.57 36.34 122.44 196.12 1.49c15.17,29.4 -3.83,-1.69 16.34,38.76 26.6,53.32 9.6,22.69 33.03,53.71l213.5 29.11 -50.91 -421.61c589.12,144.04 63.19,503.74 62.49,505.45 -9.43,85.78 76.32,478.23 79.19,625.34l-195.25 5.18 49.09 258.57c160.84,8.68 195.59,-35.68 337.72,-46.65l40.17 216.06 79.2 306.99 134.56 -5.33 22.89 168.19 142.09 -8.6 1.43 505.46c295.24,8.2 814.31,-27.93 1147.89,-27.95 156.09,-0.02 410.88,0.83 565.43,4.77l-22.65 1541.33c68.49,7.39 1135.54,-0.6 1137.52,-1.82 -33.29,-144.07 -20.03,-114.4 -90.3,-131.76 -51.27,-12.67 -65.76,27.52 -98.5,-6.53 -32.58,-65.13 -68.4,-222.77 -82.93,-305.05 -24.79,-140.42 271.52,-624.82 346.68,-739.11 54.67,-200.82 147.82,-273.68 92.32,-555.58l-225.95 -0.57 1.45 -347.31c83.7,4.58 167.88,8.57 251.14,19.24 177.58,22.74 355.03,150.11 494.29,120.85 24.09,-120.77 -39.28,-13.01 -23.21,-147.95 19.99,-167.85 44.87,10.11 95,-124.12 40.23,-220.62 -65.55,-203.6 -92.71,-220.6 -17.23,-198.47 48.92,-196.13 -102.05,-255.77 -4.33,-294.42 -42.36,-544.16 106.16,-747.57l324.17 -17.75 -5.82 -263.97c-243.44,-14.11 -151.11,-14.97 -199.69,-108.45 -163.06,25.6 -62.86,-23.87 -197.06,-49.34 -46.97,-8.91 -237.39,-4.78 -299.64,-6.25 -55.9,-144.12 -23.76,-113.33 -121.77,-237.41 -199.6,-252.66 -98.79,-430.74 -153.63,-531.65 -46.21,-85.05 -117.51,-89.72 -207.95,-159.52 -18.09,-157.72 45.84,-132.23 94.11,-272.21 66.99,-194.3 23.26,-131.29 -41.4,-242.55 259.75,-339.79 -126.62,-275.32 156.35,-552.65 -90.01,-53.67 -251.94,-148.01 -358.97,-182.09 -5.18,-297.01 1.01,-156.08 -124.37,-290.71l-292.92 -420.77 50.69 -70.94c5.15,-12.83 34.06,-20.06 -18.43,-46.65 -51.24,-25.94 -139.1,-14.79 -201.38,-14.68 -444.45,0.76 -238.75,249.1 -717.45,167.12 -195.75,-33.53 -214.4,-11.08 -361.16,-113.81l-175.88 121.12c-11.19,292.55 18.33,207.89 -75.06,247.36 -59.03,24.97 -163.72,50.96 -224.44,69.2 -201.54,60.54 -197.25,187.34 -357.45,267.88 -152.43,-9.17 -386.04,-133.65 -468.38,-206.41 -202.53,-179 -205.03,-83.55 -512.1,-116.82 -84.33,-101.28 -155.48,-218.49 -222.63,-326.87 -108.35,-174.87 -127.36,-117.66 -284.61,-211.38 -24.51,109.64 -43.25,610.8 -12.85,700.61 81.86,90.95 78.86,23.88 162.56,86.21 77.18,57.47 5.82,152.79 452.12,233 166.25,29.88 95.87,-74.94 335.27,35.81 88.76,41.06 212.72,90.65 291.48,149.37 33.23,327.25 10.76,244.61 -231.09,217.68 -108.87,109.77 -34.36,108.8 -197.31,207.19l-523.48 285.68c-105.94,54.71 -193.24,131.05 -275.39,180.48l44.9 80.05z"></path>
      <path class="fil7 str0" d="M1376.35 6910.86c29.79,76.56 193.42,366.15 227.97,405.48 132.76,151.09 283.61,132.78 437.56,25.45l0.24 -220.06 461.18 39.03 48.72 432.66c278.86,9.45 75.5,-99.2 462.44,-50.64 206.93,25.97 272.86,69.99 501.56,47.92 93.36,-385.12 130.31,-141.49 624.32,-477.58l75.59 -59.74c-23.27,-97.66 -93.95,-201.56 -74.66,-288.04 32.58,-146.1 28.51,-193.66 29.02,-361.15l242.62 20.21c1.89,-83.66 -12.54,-161.56 26.66,-225.18l559.25 30.9c35.22,72.38 -0.77,50.59 48.82,120.36 165.44,2.54 317.2,20.1 475.06,-36.89 45.5,-16.42 335.93,-189.21 355.98,-210.67l4.69 -4.99 0.01 0c60.57,-64.24 82.66,-76.43 110.01,-81.31 18.94,-4.95 37.71,-5.34 64.1,-10.48l0.44 -0.08c4.91,-0.96 10.07,-2.08 15.56,-3.44 41.88,-10.32 81.03,-7.83 111.65,6.95l-4.23 -2.18 41.42 -335.52c125.17,-52.25 162.55,0.51 297.58,-93.15l-106.96 -748.08c-56.37,-34.4 -91.27,-27.85 -160.95,-31.59l-601.37 -26.21c-42.11,-106.42 -13.83,-433.16 -3.36,-562.98 249.99,-21.95 673.95,66.64 891.76,-13.65l0.13 -0.05c33.28,-15.33 106.05,-46.01 111.4,-46.48 53.73,-4.79 103.98,87.53 188.7,106.71 120.54,27.27 187.77,-39.99 288.52,-89.8l159.75 -120.18c-6.18,-4.02 -14.74,-7.68 -19.86,-9.73l-118.52 -30.43c-70.35,-307.63 -123.97,1.54 -197.11,-250.31 -22.9,-78.83 -12.84,-6.16 -30.98,-87.96l109.82 -10.64c7,-1.83 15.62,-5.96 21.27,-7.71l41.55 -19.93c-24.44,-136.89 -107.6,-192.25 -123.47,-296.04 -10.43,-68.22 3.13,-129.93 -1.44,-196.02 -12.22,-176.55 -3.58,-38.78 -50.23,-146.61 -61.04,-15.14 -34.23,-44.04 -189.61,-63.93 -106.53,-13.64 -173.26,9.99 -258.68,43.42 -204.95,80.22 -308.89,50.1 -519.06,119.55 -177.28,58.59 -217.52,-82.41 -508.83,-42.78 -509.6,69.31 -277.76,-82.17 -523.52,-28.57 -101.27,244 73.16,196.04 -432.75,272.3 -79.04,11.92 -253.44,18.13 -309.9,33.86 -111.64,31.09 -120.3,107.82 -255.13,111.57 -129.94,3.61 -146.71,-48.05 -318.53,-26.55l-587.09 124.72c-71.32,33.4 -161.39,111.09 -249.24,125.45 -242.86,39.71 26.99,-96.16 -597.9,58.14 -511.92,126.4 -1233.61,289.95 -1702.56,427.88 -29.14,644.87 71.62,498.61 77.81,709.88l-12.3 426.25c7.49,26.96 70.97,112.95 95.25,170.92 22.93,54.73 45.4,141.37 80.53,188.75 62.3,84.06 305.23,170.43 -60.03,377.96 -156.42,88.87 -97.39,87.58 -315.47,125.26l364.69 217.74c239.37,141.95 172.05,99.3 492.23,69.08 42.89,171.95 158.86,332.35 187.88,478.93z"></path>
      <path class="fil8 str0" d="M4140.34 7113.12c33.35,-22.61 51.53,-24.75 73.89,-35.39 42.54,82.27 65.66,200.23 37.94,317.92 -49.97,212.23 -212.45,299 204.43,329.07 -1.08,552.3 -14.74,304.68 -284.29,300.06l-7.53 507.25 -185.14 3.78c-49.35,269.38 92.26,310.52 -229.65,540.38 -54.46,38.91 39.99,19.71 -75.04,42.38l-262.48 4.06 -101.71 856.1c-79.78,39.45 -70.84,-1.93 -148.93,48.65l-4.99 792.08 -0.74 0.47 43.3 76.99c2.14,4.65 5.63,13.3 9.83,19.12 187.49,7.1 270.21,59.89 369.58,115.54 54.86,-71.08 52.15,-109.84 87.04,-188.91 184.64,22.99 16.32,66.96 180.69,115.73 114.06,-17.31 113.66,-76.19 150.27,-154.48l186.45 37.54 39.21 229.34 531.06 -4.54c10.51,-27.81 80.86,-126.16 102.09,-152.3 22.88,-28.15 44.29,-48.38 69.84,-78.3 77.15,-90.31 46.15,-80.7 186.96,-106.08 5.62,-190.95 46.21,-135.25 128.21,-236.47 -154.49,-194.73 -321.78,-292.46 -349.26,-425.31 112.5,-60.95 83.54,-92.23 256.68,-44.9 82.73,22.61 231.03,39.87 295.85,71.44 115.83,60.25 26.56,218.89 388.13,197.85l237.02 -314.57 400.3 2.55c27.57,-54.96 -114.78,-166.32 466.06,-392.88l2.44 -512.96 334.28 75.64c32.82,-377.76 161.29,-461.59 -5.32,-631.82 -112.59,-115.11 -190.09,-177.13 -243.83,-224.11 -18.06,-14.51 -33.78,-29.36 -47.39,-44.59 -16.62,-17.63 -29.55,-34.93 -39.71,-54.82 -71.01,-124.47 -39.12,-272.41 -42.97,-455.5 -258.4,-76.59 -542.4,-107.38 -614.86,-485.26 169.94,-137.6 264.9,-144.22 270.46,-413.07 -202.37,-145.62 -307.22,4.43 -315.94,-403.63l130.2 -82.44c-4.3,-58.91 -37.22,-89.1 -61.05,-173.16l-1.51 -5.36 -0.06 -0.2 -1.39 -5 -0.11 -0.39 -1.28 -4.65 -0.15 -0.58 -1.18 -4.33 -0.21 -0.74 -1.08 -4 -0.24 -0.9 -0.99 -3.7 -0.28 -1.05 -0.92 -3.42 -0.3 -1.18 -0.85 -3.15 -0.34 -1.31 -0.76 -2.88 -0.38 -1.43 -0.7 -2.64 -0.4 -1.54 -0.64 -2.4 -0.43 -1.64 -0.59 -2.17 -0.45 -1.73 -0.54 -1.97 -0.48 -1.81 -0.48 -1.78 -0.52 -1.88 -0.44 -1.58 -0.53 -1.96 -0.4 -1.39 -0.57 -2.02 -0.35 -1.24 -0.6 -2.08 -0.32 -1.07 -0.63 -2.13 -0.28 -0.92 -0.65 -2.17 -0.25 -0.79 -0.7 -2.21 -0.21 -0.65 -0.73 -2.25 -0.18 -0.52 -0.03 -0.07 -0.9 -2.62 -0.81 -2.32 -0.11 -0.29 -0.87 -2.34 -0.08 -0.19 -0.92 -2.36 -0.04 -0.09 -0.07 -0.17c-0.63,-1.56 -1.26,-3.07 -1.92,-4.53l-0.04 -0.09 -1 -2.15 -0.08 -0.19 -0.99 -2 -0.12 -0.26 -0.98 -1.87 -0.17 -0.33 -0.97 -1.76 -0.04 -0.07c-1.13,-1.99 -2.32,-3.9 -3.58,-5.77l-0.09 -0.13 -1.05 -1.52 -0.35 -0.48c-2.21,-3.04 -4.61,-5.95 -7.31,-8.77l-0.1 -0.1c-1.63,-1.69 -3.38,-3.38 -5.23,-5.03l-0.15 -0.14 -1.74 -1.51 -0.2 -0.17c-1.93,-1.64 -3.98,-3.27 -6.16,-4.91l-1.84 -1.36 -0.44 -0.31c-2.33,-1.68 -4.8,-3.37 -7.43,-5.09l-2.59 -1.67 -0.1 -0.05 -2.8 -1.75 0 -0.01 -2.91 -1.76 -0.12 -0.08 -2.9 -1.72 -0.25 -0.15 -2.9 -1.67 -0.38 -0.23 -2.89 -1.64c-3.33,-1.88 -6.85,-3.82 -10.58,-5.83l-1.01 -0.56 -2.77 -1.48 -1.22 -0.65 -2.72 -1.44 -1.41 -0.75 -2.67 -1.39 -0.04 -0.03 -6.41 -3.34c-30.62,-14.78 -69.77,-17.27 -111.65,-6.95 -80.05,19.71 -93.25,-8.34 -194.81,100.3 -20.05,21.46 -310.48,194.25 -355.98,210.67 -157.86,56.99 -309.62,39.43 -475.06,36.89 -49.59,-69.77 -13.6,-47.98 -48.82,-120.36l-559.25 -30.9c-39.2,63.62 -24.77,141.52 -26.66,225.18l-242.62 -20.21c-0.51,167.49 3.56,215.05 -29.02,361.15 -19.29,86.48 51.39,190.38 74.66,288.04l-75.59 59.74z"></path>
      <path class="fil9 str0" d="M7760.21 5176.37c-203.02,42.89 -13.65,213.42 -191.12,265.27 -14.34,4.19 -47.43,11.31 -62.52,14.13 -49.93,9.35 -73.05,13.07 -130.28,16.82l-26.37 -26.94c-2.63,-2.92 -12.74,-15.47 -15.87,-23.01l-251.97 7.91 -78.4 149.23 -483.77 -1.06c-135.03,93.66 -172.41,40.9 -297.58,93.15l-41.42 335.52c100.15,51.58 86.67,53.71 120.81,174.18 23.83,84.06 56.75,114.25 61.05,173.16l-130.2 82.44c8.72,408.06 113.57,258.01 315.94,403.63 -5.56,268.85 -100.52,275.47 -270.46,413.07 72.46,377.88 356.46,408.67 614.86,485.26 5.4,256.78 -59.59,444.45 187.77,595.14 276.77,168.59 538.43,71.94 585.58,69.07 152.58,-13.19 168.7,-97.42 282.89,21.43 40.63,42.31 35.21,56.45 96.07,98.47 266.04,183.67 645.69,76.86 932.54,73.84l41.42 151.15c124.19,-35.55 80.88,-13.26 156.7,-83.85l-41.72 -231.67c396.16,-7.01 363.47,-40.5 622.65,142.4 75.83,-44.23 89.64,-89.12 122.29,-189.64 1.87,-5.75 3.65,-12.93 5.38,-18.39 13.09,-41.53 3.87,-30.12 16.57,-51.71 258.54,133.38 352.2,93.06 692.13,102.29l0.26 -329.91 -279.06 0.05c-94.46,-256.82 -108.02,-85.86 -694.35,-264.87 -102.3,-31.23 -79.07,-6 -80.86,-143.42 207.57,-7.48 174.09,52.86 295.97,-20.2 54.43,-32.62 108.76,-51.33 196.53,-16.2 81.09,32.45 49.42,117.08 396.16,-5.41 75.09,-26.53 44.48,-18.51 69.85,-37.02 -22.62,-203.1 -104.03,-24.3 -285.54,-269.64 20.9,-92.96 28.39,-54.61 44.21,-194.17 14.16,-125.04 68.34,-269.15 114.85,-368.02 51.94,-110.43 8.37,-90.55 -3.4,-219.35 231.48,-27.11 174.61,-35.65 321.8,-421.94l215.18 160.49c37.06,-47.31 4.12,56.21 43.24,-81.72 53.43,-84.26 132.16,-164.66 172.3,-227.89 28.2,-44.41 87.22,-223.73 100.43,-289.71 -68.71,-37.03 -48.27,0.87 -102.15,-46.7 -11.2,4.97 -17.52,8.24 -31.7,10.4 -91.5,26.14 -188.62,22.16 -211.74,-6.32l-0.2 -0.29c-45.12,21.62 -134.88,72.2 -329.92,173.15 -157.68,81.62 -136.93,-28.69 -264.45,-63.25 -80.38,-21.78 -220.52,40.77 -311.28,60.51 -0.18,-229.11 16.81,-107.86 124.23,-250.96 -129.74,-69.24 -69.68,-34.25 -155.08,-135.91 -81.99,-97.6 -80.87,-54.16 -204.51,-85.86 -120.97,-31.03 10.63,-11.72 -183.26,-112.84 -136.95,-71.42 -52.13,-109.49 -139.89,-125.81 -174.37,0.25 -106.68,-13.13 -223.55,67.38 -123.54,85.13 -243.68,4.79 -343.77,-18.53 -96.05,-14.86 -149.48,55.03 -187.12,146.52l-737.15 39.14 -48.71 -186 -110.29 23.01z"></path>
      <path class="fil10 str0" d="M11118.6 5642.03c53.88,47.57 33.44,9.67 102.15,46.7 -13.21,65.98 -72.23,245.3 -100.43,289.71 -40.14,63.23 -118.87,143.63 -172.3,227.89l1.96 297.15 187.98 -22c17.47,200.8 -43.57,211.25 184.79,218.25 60.27,-71.08 14.72,-106.02 139.81,-95.93 127.15,10.26 66.9,59.11 182.91,-27.81 281.31,-210.79 48.77,-66.69 272.13,-114.91 33.4,-103.61 -4.54,-138.32 -25.23,-253.18 240.63,2.63 208.66,54.63 434.79,313.94 125.07,143.42 56.89,83.95 270.06,106.29 114.87,12.04 110.74,144.23 117,259.9l-271.52 -31.16 34.58 250.13 285.2 9.81 -37.44 586.87 319.54 -0.46 95.76 -316.88 307.41 34.46 -66.32 -259.96 271.04 -84.02 73.94 106.41 811.34 -261.55c27.42,-9.22 28.28,-8.15 54.44,-19.58l67.17 -36.79c3.72,-260.95 -106.52,-639.58 -140.04,-896.86l240.38 -48.52c-2.69,-128.27 -26.81,-137.85 -57.49,-248.57l-21.45 -52.04c104.9,-34.11 403.11,-24.78 542.16,-35.82l-79.2 -307 -40.17 -216.06c-142.13,10.97 -176.88,55.33 -337.72,46.65l-49.09 -258.57 195.25 -5.18c-2.87,-147.11 -88.62,-539.56 -79.19,-625.34 0.7,-1.71 526.63,-361.41 -62.49,-505.45l50.91 421.61 -213.5 -29.11c-23.43,-31.02 -6.43,-0.39 -33.03,-53.71 -20.17,-40.45 -1.17,-9.36 -16.34,-38.76l-196.12 -1.49 -36.34 -122.44 -174.3 -24.57 27.88 -116.71c1.07,-4.25 4.06,-10.5 4.8,-14.37l-3.57 -225.07c-10.57,-76.22 -23.87,-73.69 -29.39,-159.27l-85.71 -30.5c-6.14,-2.87 -13.17,-6.73 -18.86,-9.57 -5.92,-2.97 -14.36,-8.14 -19.23,-10.7 -4.98,-2.62 -13.39,-6.97 -19.5,-11.35 -16.98,-210.12 -26.99,-158.99 93.81,-233.06l-29.01 -129.89 -44.9 -80.05c-141.64,9.6 -213.08,42.15 -368.73,17.95 -97.93,-15.22 -253.79,-76.37 -328.6,-40.68 -59.33,111.1 -2,178.72 -130.21,235.7 -130.48,58 -154.31,-4.99 -282.16,81.03 39.12,181.45 152.25,34.42 148.66,345.32 -1.99,173.15 -71.39,268.35 -149.01,365.61 48.09,81.13 87.13,93.8 118.01,197.94 -63.04,209.44 -175.59,170.52 -413.98,196.27l-140.15 220.94c-118.35,-163.59 34.44,-81.04 -171.11,-177.47 -4.05,-174.88 18.64,-149.34 -49.99,-272.36 -111.01,14.5 -105.57,47.79 -191.85,116.13l-540.72 415.11c-66.35,50.62 -96.8,78.29 -164.38,130.27 -322.4,247.99 -200.91,220.02 -292.33,346.29 -117.67,162.54 -180.98,-68.47 -166.55,474.95 1.53,57.62 -44.72,130.99 -29.65,149.57 25.82,31.8 143.94,33.06 243.44,-4.08z"></path>
      <path class="fil11 str0" d="M1694.7 11168.51l252.54 51.69 0.65 -540.14c157.68,18.36 458.03,193.83 549.68,276.96 80.35,45.68 32.91,35.96 132.9,62.1 137.33,-280.77 256.67,-81.74 258.21,-80.9 95.94,51.8 209.57,-82.65 268.16,-118.76l4.99 -792.08c78.09,-50.58 69.15,-9.2 148.93,-48.65l101.71 -856.1 262.48 -4.06c115.03,-22.67 20.58,-3.47 75.04,-42.38 321.91,-229.86 180.3,-271 229.65,-540.38l185.14 -3.78 7.53 -507.25c269.55,4.62 283.21,252.24 284.29,-300.06 -416.88,-30.07 -254.4,-116.84 -204.43,-329.07 27.72,-117.69 4.6,-235.65 -37.94,-317.92 -22.36,10.64 -40.54,12.78 -73.89,35.39 -494.01,336.09 -530.96,92.46 -624.32,477.58 -228.7,22.07 -294.63,-21.95 -501.56,-47.92 -386.94,-48.56 -183.58,60.09 -462.44,50.64l-48.72 -432.66 -461.18 -39.03 -0.24 220.06c-153.95,107.33 -304.8,125.64 -437.56,-25.45 -34.55,-39.33 -198.18,-328.92 -227.97,-405.48 -88.28,-24.42 -639.22,108.83 -744.5,170.53 -191.65,112.33 -496.26,187.2 -636.12,323.19 21.95,77.84 65.33,146.12 101.67,219.24 51.76,104.11 39.37,109 168.06,120.95 14.5,292.7 39.94,234.66 49.76,669.81 536.59,-24.52 477.62,-145.47 481.3,412.03 3.46,526.29 -261.89,319.61 -234.38,685 34.18,454.05 4.56,422.52 269.01,418.49 81.76,-1.24 163.32,-0.31 247.29,-0.51l48.11 1077.06 568.15 161.86z"></path>
      <path class="fil12 str0" d="M6918.56 2991.03c46.65,107.83 38.01,-29.94 50.23,146.61 4.57,66.09 -8.99,127.8 1.44,196.02 15.87,103.79 99.03,159.15 123.47,296.04l-41.55 19.93c-5.65,1.75 -14.27,5.88 -21.27,7.71l-109.82 10.64c18.14,81.8 8.08,9.13 30.98,87.96 73.14,251.85 126.76,-57.32 197.11,250.31l118.52 30.43c5.12,2.05 13.68,5.71 19.86,9.73l-159.75 120.18c-100.75,49.81 -167.98,117.07 -288.52,89.8 -84.72,-19.18 -134.97,-111.5 -188.7,-106.71 -5.36,0.47 -78.26,31.2 -111.5,46.52 -217.79,80.31 -641.78,-8.29 -891.79,13.66 -10.47,129.82 -38.75,456.56 3.36,562.98l601.37 26.21c69.68,3.74 104.58,-2.81 160.95,31.59l106.96 748.08 483.77 1.06 78.4 -149.23 251.97 -7.91c3.13,7.54 13.24,20.09 15.87,23.01l26.37 26.94c57.23,-3.75 80.35,-7.47 130.28,-16.82 15.09,-2.82 48.18,-9.94 62.52,-14.13 177.47,-51.85 -11.9,-222.38 191.12,-265.27l110.29 -23.01 48.71 186 737.15 -39.14c37.64,-91.49 91.07,-161.38 187.12,-146.52 2.39,-376.85 -79.09,-311.71 246.4,-571.44 99.08,-79.06 173.23,-144.01 266.97,-222.35 236.9,-197.97 259.28,-148.84 273.37,-711.49l145.97 -8.89c0.96,-122.26 -20.3,-162.39 34.8,-247.46 186.53,-287.96 314.21,-178.33 628.53,-181.88 -79.98,-79.09 -214.21,-128.51 -326.02,-166.38l42.09 -408.15c140.38,-43.3 351.27,36.11 507.99,45.61 27.17,-66.72 64.95,-120.57 97.27,-179.12 -45.9,-79.79 -60.67,-76.39 -120.43,-143.11 20.92,-82.42 92.95,-273.64 82.66,-341.12 -10.59,-69.5 -117.83,-260.34 -145.6,-290.95l-756.16 1.38c-37.65,-114.39 -97.26,-219.7 -137.69,-329.25l129.01 -45.77c-367.97,-81 -92.9,-135.82 -449.32,-54.48 -200.36,45.73 -367.12,34.57 -565.33,11.86 -54.63,92.41 -2.71,106.08 -118.58,94.33 -119.35,-12.1 -44.45,-74.84 -157.52,-104.74 -113.8,-30.11 -41.96,44.95 -287.05,55.77 -12.08,0.54 -46.91,-20.85 -103.78,18.52 33.63,67.7 50.76,25.39 129.06,90.38 -13.55,154.62 -76.16,28.81 -33.92,136.62 25.69,65.56 40.52,96.72 98.96,147.16 34.6,29.87 35.84,25.61 66.48,58.29 27.43,29.25 25.59,41.03 59.08,62.24 95.79,60.72 108.57,-22.37 147.43,118.11l-229.83 57.04c-52.61,213.66 -55.39,191.48 -174.85,308.62 78.51,65.72 84.71,35.84 121.6,134.45 -913.11,257.37 -907.63,-7.57 -1124.14,-67.57 -106.71,-29.58 -286.19,43.04 -401.18,58.92 -22.93,224.33 -80.04,254.85 -138.27,404.33l307.84 44.33c-12.4,47.22 -7.62,35.75 -40.76,63.52z"></path>
    </g>
    <g>
      <text x="2600" y="5400" class="fil7 fnt0"> </text>
      <text x="7500" y="3800" class="fil12 fnt0"> </text>
      <text x="11500" y="2500" class="fil1 fnt0"> </text>
      <text x="11000" y="1400" class="fil1 fnt0 fnt-city"> </text>
      <text x="16000" y="4200" class="fil6 fnt0"> </text>
      <text x="1300" y="9000" class="fil11 fnt0"> </text>
      <text x="4800" y="8700" class="fil8 fnt0"> </text>
      <text x="7500" y="7200" class="fil9 fnt0"> </text>
      <text x="12200" y="5500" class="fil10 fnt0"> </text>
      <text x="2300" y="13500" class="fil3 fnt0"> </text>
      <text x="6800" y="11700" class="fil4 fnt0"> </text>
      <text x="13400" y="8600" class="fil2 fnt0"> </text>
      <text x="20000" y="9000" class="fil5 fnt0"> </text>
      <text x="24000" y="10500" class="fil13 fnt0"> </text>
    </g>
  </g>
</svg>
